<svg width="15" height="10" viewBox="0 0 15 10" fill="none" xmlns="http://www.w3.org/2000/svg">
<path fill-rule="evenodd" clip-rule="evenodd" d="M2 0C0.89543 0 0 0.895431 0 2V8C0 9.10457 0.895431 10 2 10H13C14.1046 10 15 9.10457 15 8V2C15 0.89543 14.1046 0 13 0H2ZM2.875 1.66667C2.32272 1.66667 1.875 2.11438 1.875 2.66667V7.33333C1.875 7.88562 2.32272 8.33333 2.875 8.33333H12.125C12.6773 8.33333 13.125 7.88562 13.125 7.33333V2.66667C13.125 2.11438 12.6773 1.66667 12.125 1.66667H2.875ZM7.51154 5.84958L7.51354 5.84779L4.22544 2.91967L3.29819 3.77614L4.69934 5.0098L3.27908 6.25609L4.24261 7.08032L5.64733 5.84447L6.57175 6.65838L6.5625 6.66667L7.5 7.5L8.4375 6.66667L7.51154 5.84958ZM11.7317 3.74595L10.8049 2.92214L7.51076 5.8449L8.4743 6.66913L9.37502 5.86081L10.7257 7.07387L11.6879 6.2531L10.3152 5.01708L11.7317 3.74595Z" fill="#82868E"/>
</svg>
