<svg width="11" height="11" viewBox="0 0 11 11" fill="none" xmlns="http://www.w3.org/2000/svg">
<path fill-rule="evenodd" clip-rule="evenodd" d="M0.533325 4.59015C0.533325 2.38101 2.28525 0.590149 4.44637 0.590149C6.60748 0.590149 8.35941 2.38101 8.35941 4.59015C8.37695 5.48205 8.08204 6.35099 7.52789 7.04015L10.1203 9.69015C10.2857 9.87761 10.2885 10.1617 10.1267 10.3525C9.96496 10.5433 9.68945 10.5809 9.48441 10.4401L9.4355 10.3901L6.84311 7.74015C6.16091 8.29182 5.31622 8.59139 4.44637 8.59015C2.28525 8.59015 0.533325 6.79929 0.533325 4.59015ZM1.51159 4.59015C1.51159 6.247 2.82553 7.59015 4.44637 7.59015C5.22472 7.59015 5.97119 7.27408 6.52157 6.71147C7.07195 6.14886 7.38115 5.3858 7.38115 4.59015C7.38115 2.93329 6.0672 1.59015 4.44637 1.59015C2.82553 1.59015 1.51159 2.93329 1.51159 4.59015Z" fill="white"/>
</svg>
