<svg width="15" height="15" viewBox="0 0 15 15" fill="none" xmlns="http://www.w3.org/2000/svg">
<path fill-rule="evenodd" clip-rule="evenodd" d="M7.5 0C5.42893 0 3.75 1.67893 3.75 3.75V6.5625C3.75 6.80972 3.77392 7.05135 3.81958 7.28521C1.53951 8.25015 0 10.084 0 12.1875C0 12.3896 0.0142109 12.5694 0.0419243 12.7289C0.0144596 12.8566 0 12.9891 0 13.125C0 14.1605 0.839466 15 1.875 15H13.125C14.1605 15 15 14.1605 15 13.125C15 12.9891 14.9855 12.8566 14.9581 12.7289C14.9858 12.5694 15 12.3896 15 12.1875C15 10.084 13.4605 8.25015 11.1804 7.28521C11.2261 7.05135 11.25 6.80972 11.25 6.5625V3.75C11.25 1.67893 9.57107 0 7.5 0ZM1.875 12.1875C1.875 10.8179 2.97635 9.61979 4.62082 8.96531C5.30871 9.78869 6.34318 10.3125 7.5 10.3125C8.65682 10.3125 9.69129 9.78869 10.3792 8.96531C12.0237 9.61979 13.125 10.8179 13.125 12.1875C13.125 12.3069 13.1166 12.4125 13.1003 12.5056C13.1163 12.5529 13.125 12.6035 13.125 12.6562C13.125 12.9151 12.9151 13.125 12.6562 13.125H2.34375C2.08487 13.125 1.875 12.9151 1.875 12.6562C1.875 12.6035 1.8837 12.5529 1.89974 12.5056C1.88337 12.4125 1.875 12.3069 1.875 12.1875ZM5.625 3.75C5.625 2.71447 6.46447 1.875 7.5 1.875C8.53553 1.875 9.375 2.71447 9.375 3.75V6.5625C9.375 7.59803 8.53553 8.4375 7.5 8.4375C6.46447 8.4375 5.625 7.59803 5.625 6.5625V3.75Z" fill="#82868E"/>
</svg>
